<svg width="597" height="136" viewBox="0 0 597 136" fill="none" xmlns="http://www.w3.org/2000/svg">
<path d="M69.0325 0C66.5207 0 64.0084 0.134818 61.5102 0.400302C32.4366 3.50056 4.67776 30.9341 1.44957 59.7936C-2.84458 96.825 21.6833 128.739 59.0003 133C73.7646 133.841 83.7988 133.296 96.8149 125.295C103.406 121.039 110.931 118.415 118.756 117.646C120.643 117.479 122.556 117.398 124.497 117.398C126.338 117.398 128.165 117.461 129.974 117.592C137.919 118.335 145.563 120.985 152.246 125.313C184.213 144.891 226.119 135.045 245.847 103.324C253.868 90.4302 257.281 75.232 255.537 60.1783C252.313 31.3411 224.55 3.9122 195.476 0.811948C192.985 0.546013 190.481 0.412388 187.976 0.411645L69.0325 0Z" fill="#EF4CA4"/>
<path d="M59.0007 99.1597C49.5 99 45.2417 94.9135 43 93C41.8285 92 40.784 90.8662 40.1329 89.5601C39.4818 88.1234 39.1562 86.752 39.1562 85.4459C39.1562 83.095 39.9376 81.0053 41.5003 79.1768C43.0629 77.3483 45.0814 76.434 47.5556 76.434C48.5974 76.434 50 76.4938 50.8763 77.0218C52.5 78 55.7423 81.3318 58.4147 81.3318C60.6285 81.3318 62.3214 80.6135 63.4934 79.1768C64.7956 77.6095 65.4467 75.0626 65.4467 71.5362V25.3011C65.4467 22.8196 66.2281 20.7952 67.7907 19.2279C69.4836 17.6606 71.6323 16.877 74.2368 16.877C76.8412 16.877 78.9248 17.6606 80.4875 19.2279C82.1804 20.7952 83.0268 22.8196 83.0268 25.3011V72.9076C83.0268 81.5277 80.6828 88.0581 75.9948 92.4988C71.437 96.9394 65.7713 99.2736 59.0007 99.1597Z" fill="black"/>
<path d="M166.514 46.2598C166.514 43.6476 167.426 41.6885 169.249 40.3824C171.073 39.0764 173.156 38.4233 175.5 38.4233C177.323 38.4233 178.886 38.9457 180.188 39.9906C181.621 40.9049 182.597 42.2109 183.118 43.9088L195.229 73.4915C195.88 75.1894 196.792 76.0383 197.964 76.0383C199.136 76.0383 199.982 75.1894 200.503 73.4915L211.051 43.9088C211.702 42.0803 212.744 40.709 214.176 39.7947C215.739 38.8805 217.367 38.4233 219.06 38.4233C221.273 38.4233 223.292 39.1417 225.115 40.5783C227.068 42.015 228.045 43.9088 228.045 46.2598C228.045 47.5659 227.785 48.8066 227.264 49.9821L196.792 120.51C195.88 122.469 194.708 123.841 193.276 124.624C191.973 125.539 190.606 125.996 189.174 125.996C186.829 125.996 184.681 125.147 182.727 123.449C180.904 121.882 179.993 119.988 179.993 117.767C179.993 116.592 180.253 115.547 180.774 114.633L191.322 95.8254C189.108 95.1723 187.35 93.5397 186.048 90.9276L167.101 49.7862C166.71 48.6107 166.514 47.4353 166.514 46.2598Z" fill="black"/>
<rect x="422" y="46" width="18" height="18" rx="3" fill="#1ABA1A"/>
<path d="M294.184 108.16C291.84 108.16 289.757 107.376 287.934 105.809C286.241 104.111 285.395 102.152 285.395 99.9319V39.5911C285.395 35.8035 286.566 32.7342 288.911 30.3833C291.255 28.0324 294.315 26.8569 298.091 26.8569H317.82C325.633 26.8569 332.079 29.0772 337.158 33.5179C342.367 37.9585 344.971 43.8359 344.971 51.1499C344.971 59.117 342.432 65.582 337.353 70.5451C332.274 75.5082 325.828 77.9898 318.015 77.9898H306.49C303.886 77.9898 302.584 79.2959 302.584 81.908L302.974 99.9319C302.974 102.152 302.063 104.111 300.24 105.809C298.547 107.376 296.528 108.16 294.184 108.16ZM305.514 62.3169H315.866C323.94 62.3169 327.977 58.9864 327.977 52.3254C327.977 45.795 324.201 42.5298 316.648 42.5298H305.514C303.56 42.5298 302.584 43.5094 302.584 45.4685V59.3782C302.584 61.3373 303.56 62.3169 305.514 62.3169Z" fill="white"/>
<path d="M366.653 108.16C364.179 108.16 362.095 107.442 360.403 106.005C358.71 104.568 357.863 102.74 357.863 100.52V56.0477C357.863 53.958 358.644 52.1948 360.207 50.7581C361.9 49.1908 364.049 48.4072 366.653 48.4072C369.258 48.4072 371.276 49.1908 372.709 50.7581C374.271 52.1948 375.053 54.0233 375.053 56.2436V100.324C375.053 102.544 374.206 104.438 372.513 106.005C370.951 107.442 368.997 108.16 366.653 108.16ZM366.653 38.6116C363.919 38.6116 361.574 37.7626 359.621 36.0647C357.668 34.2362 356.691 31.9506 356.691 29.2078C356.691 26.7263 357.668 24.5713 359.621 22.7428C361.574 20.9143 363.919 20 366.653 20C369.258 20 371.471 20.9143 373.295 22.7428C375.248 24.5713 376.225 26.7263 376.225 29.2078C376.225 31.9506 375.248 34.2362 373.295 36.0647C371.471 37.7626 369.258 38.6116 366.653 38.6116Z" fill="white"/>
<path d="M393.789 108.16C391.576 108.16 389.557 107.311 387.734 105.613C385.911 103.915 384.999 101.956 384.999 99.7359C384.999 97.6462 385.846 95.6871 387.539 93.8586L401.017 79.9489C401.798 78.904 402.189 77.9898 402.189 77.2061C402.189 76.1613 401.798 75.247 401.017 74.4634L387.343 60.7496C386.041 59.0517 385.39 57.3538 385.39 55.6559C385.39 53.4356 386.367 51.5417 388.32 49.9745C390.273 48.2766 392.422 47.4276 394.766 47.4276C397.24 47.4276 399.194 48.3419 400.626 50.1704L411.565 62.9046C411.998 63.3957 413.414 65 413.414 65L414.296 66L416.503 68.5L418.498 70.7616L420.032 72.5L421.765 74.4634L422.998 75.861L424.28 77.3137L425.184 78.3382L426.606 79.9489L440.084 93.8586C441.777 95.6871 442.623 97.6462 442.623 99.7359C442.623 101.956 441.711 103.915 439.888 105.613C438.065 107.311 436.047 108.16 433.833 108.16C431.489 108.16 429.536 107.181 427.973 105.221L416.253 91.3118C415.732 90.5281 414.951 90.1363 413.909 90.1363C413.128 90.1363 412.346 90.5281 411.565 91.3118L399.649 105.221C398.738 106.266 397.761 106.985 396.719 107.376C395.808 107.899 394.831 108.16 393.789 108.16Z" fill="white"/>
<path d="M478.108 108.16C469.253 108.16 461.765 105.548 455.645 100.324C449.655 94.9688 446.659 87.6547 446.659 78.3816C446.659 68.7166 449.589 61.1414 455.449 55.6559C461.44 50.1704 468.928 47.4276 477.913 47.4276C484.294 47.4276 489.568 48.6031 493.735 50.954C497.902 53.3049 501.028 56.3089 503.111 59.9659C505.195 63.6229 506.236 67.4759 506.236 71.5247C506.236 78.3163 503.241 81.7121 497.251 81.7121H464.826C463.784 81.7121 463.263 82.3651 463.263 83.6712C463.263 86.6752 464.891 89.0914 468.146 90.9199C471.532 92.6178 475.308 93.4668 479.476 93.4668C482.08 93.4668 484.684 93.1403 487.289 92.4872C489.893 91.7036 492.172 90.5934 494.126 89.1567C495.428 88.2425 496.795 87.7854 498.228 87.7854C500.181 87.7854 501.809 88.5037 503.111 89.9404C504.544 91.3771 505.26 93.075 505.26 95.0341C505.26 97.385 504.023 99.6053 501.548 101.695C499.204 103.654 495.753 105.221 491.196 106.397C486.768 107.572 482.406 108.16 478.108 108.16ZM488.266 70.3492C488.526 70.3492 488.852 70.2839 489.242 70.1533C489.763 70.0227 490.024 69.5656 490.024 68.7819C490.024 66.8228 488.787 65.0596 486.312 63.4923C483.968 61.7944 480.908 60.9455 477.132 60.9455C473.095 60.9455 469.774 61.8597 467.17 63.6882C464.695 65.3861 463.458 67.1494 463.458 68.9779C463.458 69.8921 463.979 70.3492 465.021 70.3492H488.266Z" fill="white"/>
<path d="M526.888 108.16C524.414 108.16 522.331 107.442 520.638 106.005C518.945 104.568 518.098 102.74 518.098 100.52V27.6405C518.098 25.5508 518.88 23.7876 520.442 22.3509C522.135 20.7836 524.284 20 526.888 20C529.363 20 531.381 20.7836 532.944 22.3509C534.507 23.7876 535.288 25.6161 535.288 27.8365V100.324C535.288 102.544 534.441 104.438 532.748 106.005C531.186 107.442 529.232 108.16 526.888 108.16Z" fill="white"/>
<path d="M571.409 108.16C562.554 108.16 555.262 106.332 549.532 102.675C548.36 101.891 547.514 100.977 546.993 99.9319C546.472 98.7564 546.211 97.6462 546.211 96.6014C546.211 94.381 546.928 92.3566 548.36 90.5281C549.923 88.6996 551.811 87.7854 554.025 87.7854C555.066 87.7854 556.108 88.0466 557.15 88.569C559.494 89.6139 562.164 90.5281 565.159 91.3118C568.154 91.9648 570.889 92.2913 573.363 92.2913C578.181 92.2913 580.59 91.1812 580.59 88.9608C580.59 87.6547 580.004 86.5446 578.832 85.6303C577.66 84.5855 574.925 83.8671 570.628 83.4753C568.935 83.3447 566.721 83.0835 563.987 82.6917C561.382 82.2998 558.778 81.5815 556.173 80.5366C553.569 79.3612 551.355 77.6633 549.532 75.4429C547.839 73.2226 546.993 70.2186 546.993 66.431C546.993 60.5537 549.206 55.9171 553.634 52.5213C558.062 49.1255 563.987 47.4276 571.409 47.4276C575.707 47.4276 579.744 47.8847 583.52 48.799C587.427 49.7132 590.357 51.0846 592.31 52.9131C594.133 54.611 595.045 56.5701 595.045 58.7905C595.045 60.7496 594.329 62.5128 592.896 64.0801C591.464 65.6474 589.641 66.431 587.427 66.431C586.255 66.431 585.148 66.1698 584.106 65.6474C582.544 64.6025 580.525 63.8189 578.051 63.2964C575.707 62.774 573.298 62.5128 570.823 62.5128C565.875 62.5128 563.401 63.5576 563.401 65.6474C563.401 66.5616 563.856 67.4106 564.768 68.1942C565.81 68.8472 568.089 69.435 571.605 69.9574C573.819 70.2186 576.358 70.6104 579.223 71.1329C582.088 71.5247 584.822 72.3084 587.427 73.4838C590.161 74.5287 592.44 76.2919 594.263 78.7734C596.087 81.255 596.998 84.6508 596.998 88.9608C596.998 94.8382 594.654 99.54 589.966 103.066C585.278 106.462 579.093 108.16 571.409 108.16Z" fill="white"/>
<circle cx="127.5" cy="67.5" r="31.5" fill="black"/>
<path fill-rule="evenodd" clip-rule="evenodd" d="M112.1 66C111.543 66 111.009 66.2258 110.615 66.6276C110.221 67.0295 110 67.5745 110 68.1428C110 77.9969 117.843 85.9996 127.5 85.9996C137.157 85.9996 145 77.9969 145 68.1428C145 67.5745 144.779 67.0295 144.385 66.6276C143.991 66.2258 143.457 66 142.9 66H112.1Z" fill="black"/>
<path fill-rule="evenodd" clip-rule="evenodd" d="M112.1 66C111.543 66 111.009 66.2258 110.615 66.6276C110.221 67.0295 110 67.5745 110 68.1428C110 77.9969 117.843 85.9996 127.5 85.9996C137.157 85.9996 145 77.9969 145 68.1428C145 67.5745 144.779 67.0295 144.385 66.6276C143.991 66.2258 143.457 66 142.9 66H112.1Z" fill="#EF4CA4"/>
</svg>
